<?xml version="1.0" standalone="no"?>
<!DOCTYPE svg PUBLIC "-//W3C//DTD SVG 20010904//EN"
 "http://www.w3.org/TR/2001/REC-SVG-20010904/DTD/svg10.dtd">
<svg version="1.0" xmlns="http://www.w3.org/2000/svg"
 width="260.000000pt" height="260.000000pt" viewBox="0 0 260.000000 260.000000"
 preserveAspectRatio="xMidYMid meet">
<metadata>
Created by potrace 1.14, written by Peter Selinger 2001-2017
</metadata>
<g transform="translate(0.000000,260.000000) scale(0.100000,-0.100000)"
fill="#000000" stroke="none">
<path d="M1087 2159 c-136 -31 -250 -159 -261 -295 -6 -84 45 -136 112 -113
31 10 67 62 59 83 -3 8 5 35 17 62 54 116 201 127 280 21 16 -21 21 -43 21
-87 0 -63 -16 -95 -69 -134 -26 -20 -43 -21 -439 -26 -227 -3 -413 -7 -414 -8
-53 -53 -59 -104 -17 -143 l26 -24 411 1 c403 1 413 1 470 23 212 83 278 362
126 535 -75 85 -212 130 -322 105z"/>
<path d="M1814 1879 c-144 -26 -260 -153 -272 -297 -4 -55 -2 -66 18 -87 59
-63 141 -28 153 65 6 50 31 95 69 122 46 32 140 33 184 0 99 -74 87 -225 -22
-277 -36 -17 -89 -18 -874 -19 -641 -1 -840 -4 -856 -13 -58 -33 -46 -132 18
-151 22 -7 320 -10 873 -8 793 2 843 3 885 20 88 37 149 94 188 176 22 46 26
69 27 140 0 73 -4 93 -28 142 -67 136 -217 213 -363 187z"/>
<path d="M602 1098 c-40 -11 -54 -31 -56 -78 0 -29 6 -46 22 -62 l23 -23 552
-5 c551 -5 552 -5 583 -27 51 -36 68 -71 67 -135 0 -46 -5 -64 -27 -93 -35
-45 -74 -65 -128 -65 -86 0 -152 61 -164 151 -11 79 -71 116 -132 79 -37 -23
-47 -54 -38 -117 31 -225 275 -353 481 -253 278 134 227 555 -75 626 -44 10
-1069 12 -1108 2z"/>
</g>
</svg>
